<?xml version="1.0" encoding="UTF-8" standalone="no"?>
<!-- Created with Inkscape (http://www.inkscape.org/) -->

<svg
   xmlns:dc="http://purl.org/dc/elements/1.1/"
   xmlns:cc="http://creativecommons.org/ns#"
   xmlns:rdf="http://www.w3.org/1999/02/22-rdf-syntax-ns#"
   xmlns:svg="http://www.w3.org/2000/svg"
   xmlns="http://www.w3.org/2000/svg"
   xmlns:xlink="http://www.w3.org/1999/xlink"
   xmlns:sodipodi="http://sodipodi.sourceforge.net/DTD/sodipodi-0.dtd"
   xmlns:inkscape="http://www.inkscape.org/namespaces/inkscape"
   width="32"
   height="32"
   viewBox="0 0 32 32.000001"
   id="svg4259"
   version="1.1"
   inkscape:version="0.91 r13725"
   sodipodi:docname="icon.svg">
  <defs
     id="defs4261">
    <linearGradient
       inkscape:collect="always"
       id="linearGradient4912">
      <stop
         style="stop-color:#640000;stop-opacity:1"
         offset="0"
         id="stop4914" />
      <stop
         style="stop-color:#c80000;stop-opacity:1"
         offset="1"
         id="stop4916" />
    </linearGradient>
    <linearGradient
       inkscape:collect="always"
       xlink:href="#linearGradient4912"
       id="linearGradient4918"
       x1="1.9445436"
       y1="30.055456"
       x2="29.875261"
       y2="1.8595734"
       gradientUnits="userSpaceOnUse" />
  </defs>
  <sodipodi:namedview
     id="base"
     pagecolor="#ffffff"
     bordercolor="#666666"
     borderopacity="1.0"
     inkscape:pageopacity="0.0"
     inkscape:pageshadow="2"
     inkscape:zoom="8"
     inkscape:cx="14.484987"
     inkscape:cy="16.975276"
     inkscape:document-units="px"
     inkscape:current-layer="layer1"
     showgrid="false"
     units="px"
     inkscape:window-width="1280"
     inkscape:window-height="738"
     inkscape:window-x="1680"
     inkscape:window-y="278"
     inkscape:window-maximized="1" />
  <metadata
     id="metadata4264">
    <rdf:RDF>
      <cc:Work
         rdf:about="">
        <dc:format>image/svg+xml</dc:format>
        <dc:type
           rdf:resource="http://purl.org/dc/dcmitype/StillImage" />
        <dc:title></dc:title>
      </cc:Work>
    </rdf:RDF>
  </metadata>
  <g
     inkscape:label="Layer 1"
     inkscape:groupmode="layer"
     id="layer1"
     transform="translate(0,-1020.3622)">
    <path
       style="opacity:1;fill:url(#linearGradient4918);fill-opacity:1;stroke:none;stroke-width:1;stroke-linecap:round;stroke-linejoin:round;stroke-miterlimit:4;stroke-dasharray:none;stroke-opacity:1"
       d="M 16 2 A 14 14 0 0 0 2 16 A 14 14 0 0 0 3.9257812 23.058594 L 7.640625 20.910156 L 7.640625 23.144531 L 12.029297 23.144531 L 12.029297 26.804688 L 7.640625 26.804688 L 7.640625 27.212891 A 14 14 0 0 0 16 30 A 14 14 0 0 0 30 16 A 14 14 0 0 0 27.720703 8.3671875 L 23.896484 10.578125 L 23.896484 8.3457031 L 19.507812 8.3457031 L 19.507812 4.6835938 L 23.896484 4.6835938 L 23.896484 4.4570312 A 14 14 0 0 0 16 2 z M 24.597656 3.7890625 L 24.597656 5.2929688 L 20.052734 5.2929688 L 20.052734 7.7597656 L 24.597656 7.7597656 L 24.597656 9.2617188 L 29.337891 6.5214844 L 24.597656 3.7890625 z M 12 10 L 14.533203 10 L 20 15.068359 L 20 22 L 12 22 L 12 10 z M 16.150391 10 L 20 10 L 20 13.568359 L 16.150391 10 z M 6.8476562 22.142578 L 2.109375 24.882812 L 6.8476562 27.615234 L 6.8476562 26.113281 L 11.392578 26.113281 L 11.392578 23.646484 L 6.8476562 23.646484 L 6.8476562 22.142578 z "
       transform="translate(0,1020.3622)"
       id="path4817" />
  </g>
</svg>
